<svg width="14" height="14" viewBox="0 0 14 14" fill="none" xmlns="http://www.w3.org/2000/svg">
<path fill-rule="evenodd" clip-rule="evenodd" d="M0.993134 2.249C1.20402 1.89915 2.36663 0.629167 3.1951 0.667506C3.44296 0.68873 3.66206 0.837979 3.84008 1.01187H3.84077C4.24884 1.4117 5.41967 2.92062 5.4854 3.23829C5.64767 4.01739 4.71854 4.46651 5.00269 5.25178C5.72709 7.02428 6.97529 8.27236 8.74864 8.99602C9.5333 9.28082 9.98245 8.35246 10.7616 8.51404C11.0793 8.58045 12.5891 9.75048 12.9882 10.1592V10.1592C13.1615 10.3365 13.3121 10.5563 13.3326 10.8041C13.3635 11.677 12.0146 12.8553 11.7517 13.0059C11.1314 13.4502 10.3221 13.442 9.33542 12.9833C6.58227 11.8379 2.18244 7.52132 1.01573 4.66437C0.56931 3.6833 0.539184 2.86859 0.993134 2.249Z" stroke="white" stroke-linecap="round" stroke-linejoin="round"/>
<path d="M8.70996 0.833313C11.178 1.10731 13.1266 3.05398 13.404 5.52131" stroke="white" stroke-linecap="round" stroke-linejoin="round"/>
<path d="M8.70996 3.19531C9.88996 3.42531 10.812 4.34731 11.042 5.52731" stroke="white" stroke-linecap="round" stroke-linejoin="round"/>
</svg>
